# xmcd CD database file
#
# Track frame offsets:
#	150
#	18405
#	33129
#	46629
#	63768
#	81709
#	96891
#	110769
#	126999
#	143958
#
# Disc length: 2090 seconds
#
# Revision: 1
# Processed by: cddbd v1.4PL0 Copyright (c) Steve Scherf et al.
# Submitted via: CDex 1.50beta10
#
DISCID=8408280a
DTITLE=Astrud Gilberto - Astrud Gilberto Now
DYEAR=1972
DGENRE=Jazz
TTITLE0=Zigy zigy za
TTITLE1=Make love to me
TTITLE2=Baiao
TTITLE3=Touching you
TTITLE4=Gingele
TTITLE5=Take it easy, my brother Charlie
TTITLE6=Where have you been ?
TTITLE7=General da banda
TTITLE8=Bridges
TTITLE9=Daybreak (Walking out on yesterday)
EXTD=YEAR: 1972
EXTT0=
EXTT1=
EXTT2=
EXTT3=
EXTT4=
EXTT5=
EXTT6=
EXTT7=
EXTT8=
EXTT9=
PLAYORDER=
